<svg xmlns="http://www.w3.org/2000/svg" xmlns:xlink="http://www.w3.org/1999/xlink" width="500" zoomAndPan="magnify" viewBox="0 0 375 112.499997" height="150" preserveAspectRatio="xMidYMid meet" version="1.0"><defs><g/><clipPath id="4046208819"><path d="M 0.828125 12 L 374.167969 12 L 374.167969 98 L 0.828125 98 Z M 0.828125 12 " clip-rule="nonzero"/></clipPath><clipPath id="74dc553494"><path d="M 3.070312 3.121094 L 64 3.121094 L 64 44.1875 L 3.070312 44.1875 Z M 3.070312 3.121094 " clip-rule="nonzero"/></clipPath></defs><g clip-path="url(#4046208819)"><path stroke-linecap="butt" transform="matrix(0.746681, 0, 0, 0.746681, -66.858393, 22.04467)" fill="none" stroke-linejoin="miter" d="M 134.881981 71.956755 C 129.802212 71.956755 125.235129 70.884301 121.18073 68.739393 C 117.142026 66.584023 113.966517 63.60731 111.654202 59.814485 C 109.341887 56.01643 108.185729 51.742309 108.185729 46.986892 C 108.185729 42.231475 109.341887 37.957354 111.654202 34.159298 C 113.966517 30.366474 117.142026 27.394992 121.18073 25.250085 C 125.235129 23.094714 129.802212 22.017029 134.881981 22.017029 C 139.946056 22.017029 144.502676 23.094714 148.54138 25.250085 C 152.595779 27.394992 155.77652 30.366474 158.088835 34.159298 C 160.40115 37.957354 161.557307 42.231475 161.557307 46.986892 C 161.557307 51.742309 160.40115 56.01643 158.088835 59.814485 C 155.77652 63.60731 152.595779 66.584023 148.54138 68.739393 C 144.502676 70.884301 139.946056 71.956755 134.881981 71.956755 Z M 134.881981 60.719532 C 137.304157 60.719532 139.496148 60.1493 141.457954 59.008837 C 143.424991 57.857911 144.978741 56.246615 146.113973 54.169716 C 147.264899 52.082355 147.840362 49.686336 147.840362 46.986892 C 147.840362 44.29791 147.264899 41.912354 146.113973 39.835456 C 144.978741 37.748095 143.424991 36.136798 141.457954 34.996335 C 139.496148 33.845409 137.304157 33.269946 134.881981 33.269946 C 132.454574 33.269946 130.257351 33.845409 128.279851 34.996335 C 126.318045 36.136798 124.759064 37.748095 123.608138 39.835456 C 122.472906 41.912354 121.902675 44.29791 121.902675 46.986892 C 121.902675 49.686336 122.472906 52.082355 123.608138 54.169716 C 124.759064 56.246615 126.318045 57.857911 128.279851 59.008837 C 130.257351 60.1493 132.454574 60.719532 134.881981 60.719532 Z M 203.04819 45.966753 L 215.05444 45.966753 L 215.05444 65.856847 C 212.307913 67.823884 209.148097 69.330551 205.574995 70.382079 C 202.012356 71.428375 198.444486 71.956755 194.871384 71.956755 C 189.849161 71.956755 185.323929 70.894764 181.295688 68.770782 C 177.272679 66.641569 174.118095 63.675319 171.831937 59.882495 C 169.54578 56.084439 168.400085 51.789392 168.400085 46.986892 C 168.400085 42.184392 169.54578 37.889345 171.831937 34.091289 C 174.118095 30.298465 177.298836 27.337446 181.358466 25.218696 C 185.43379 23.084251 190.032263 22.017029 195.159115 22.017029 C 199.637263 22.017029 203.655042 22.780825 207.217681 24.297955 C 210.785551 25.804622 213.762264 27.975687 216.142589 30.81115 L 207.500181 38.632215 C 204.25143 35.059113 200.364439 33.269946 195.844439 33.269946 C 191.727263 33.269946 188.405272 34.520271 185.883698 37.020919 C 183.367355 39.511104 182.111799 42.833095 182.111799 46.986892 C 182.111799 49.644485 182.682031 52.014346 183.822494 54.101707 C 184.97342 56.178605 186.574253 57.805596 188.630226 58.977448 C 190.69143 60.138837 193.050828 60.719532 195.692726 60.719532 C 198.308467 60.719532 200.756801 60.185921 203.04819 59.129161 Z M 266.485139 60.233004 L 266.485139 70.999394 L 223.466663 70.999394 L 223.466663 62.493004 L 247.677961 33.756474 L 224.083978 33.756474 L 224.083978 22.990085 L 265.449305 22.990085 L 265.449305 31.496474 L 241.232776 60.233004 Z M 320.719911 71.956755 C 315.692457 71.956755 311.177688 70.894764 307.170373 68.770782 C 303.173521 66.641569 300.0294 63.675319 297.743243 59.882495 C 295.457085 56.084439 294.311391 51.789392 294.311391 46.986892 C 294.311391 42.184392 295.457085 37.889345 297.743243 34.091289 C 300.0294 30.298465 303.173521 27.337446 307.170373 25.218696 C 311.177688 23.084251 315.692457 22.017029 320.719911 22.017029 C 325.103893 22.017029 329.058893 22.801751 332.574449 24.365964 C 336.100468 25.914483 339.030097 28.153557 341.363338 31.077956 L 332.726162 38.899021 C 329.608199 35.148048 325.8363 33.269946 321.405235 33.269946 C 318.805189 33.269946 316.482411 33.845409 314.436901 34.996335 C 312.407086 36.136798 310.827179 37.748095 309.697179 39.835456 C 308.582873 41.912354 308.023105 44.29791 308.023105 46.986892 C 308.023105 49.686336 308.582873 52.082355 309.697179 54.169716 C 310.827179 56.246615 312.407086 57.857911 314.436901 59.008837 C 316.482411 60.1493 318.805189 60.719532 321.405235 60.719532 C 325.8363 60.719532 329.608199 58.84143 332.726162 55.090457 L 341.363338 62.911523 C 339.030097 65.835921 336.100468 68.074995 332.574449 69.628745 C 329.058893 71.177264 325.103893 71.956755 320.719911 71.956755 Z M 388.07524 33.824484 L 388.07524 70.999394 L 375.65047 70.999394 L 375.65047 67.013004 C 374.279822 68.535366 372.631905 69.68106 370.711952 70.465782 C 368.791998 71.23481 366.756951 71.62194 364.617275 71.62194 C 359.814775 71.62194 355.98533 70.204208 353.128941 67.368745 C 350.26732 64.528051 348.839126 60.274856 348.839126 54.603929 L 348.839126 33.824484 L 361.870747 33.824484 L 361.870747 52.479948 C 361.870747 55.268328 362.393895 57.308606 363.445423 58.590319 C 364.49172 59.861569 366.029775 60.499809 368.049127 60.499809 C 370.099868 60.499809 371.779174 59.777865 373.07135 58.339207 C 374.37922 56.90055 375.033156 54.692865 375.033156 51.726614 L 375.033156 33.824484 Z M 398.627139 33.824484 L 411.653529 33.824484 L 411.653529 70.999394 L 398.627139 70.999394 Z M 405.140334 29.50328 C 403.131445 29.50328 401.493991 28.87027 400.233204 27.593789 C 398.982879 26.312076 398.360333 24.679853 398.360333 22.707585 C 398.360333 20.740547 398.993342 19.134482 400.264593 17.884158 C 401.551537 16.623371 403.173296 15.990362 405.140334 15.990362 C 407.102139 15.990362 408.72913 16.623371 410.010843 17.884158 C 411.297788 19.134482 411.936029 20.740547 411.936029 22.707585 C 411.936029 24.679853 411.297788 26.312076 410.010843 27.593789 C 408.72913 28.87027 407.102139 29.50328 405.140334 29.50328 Z M 435.802049 71.62194 C 432.684086 71.62194 429.618437 71.266199 426.605104 70.565181 C 423.59177 69.848468 421.169594 68.917264 419.338575 67.766338 L 423.241261 58.857124 C 424.936261 59.908652 426.950381 60.745689 429.283622 61.373467 C 431.616863 61.98555 433.923947 62.294208 436.199641 62.294208 C 438.31316 62.294208 439.814595 62.074486 440.703947 61.640273 C 441.598531 61.20606 442.043207 60.57305 442.043207 59.746476 C 442.043207 58.930365 441.504364 58.34967 440.421447 58.004393 C 439.348993 57.659115 437.648762 57.3243 435.315521 56.999948 C 432.344039 56.644207 429.817234 56.168143 427.729872 55.576985 C 425.652974 54.975365 423.858576 53.876753 422.351909 52.27592 C 420.845242 50.669855 420.091909 48.425549 420.091909 45.548234 C 420.091909 43.16791 420.80339 41.059623 422.221122 39.218141 C 423.638853 37.366197 425.700057 35.901382 428.415196 34.828928 C 431.140798 33.746011 434.400012 33.207169 438.192836 33.207169 C 440.897512 33.207169 443.570799 33.479206 446.212698 34.02328 C 448.87029 34.572585 451.09367 35.352076 452.877606 36.372215 L 448.959226 45.21342 C 445.668624 43.382401 442.100753 42.466892 438.260845 42.466892 C 436.204873 42.466892 434.698206 42.70754 433.740845 43.183605 C 432.778252 43.664901 432.302187 44.29791 432.302187 45.077401 C 432.302187 45.951058 432.825336 46.55791 433.871632 46.903188 C 434.92316 47.238003 436.660012 47.588512 439.082188 47.959947 C 442.153068 48.415086 444.690336 48.938235 446.699225 49.534624 C 448.708114 50.125781 450.455429 51.213929 451.94117 52.799068 C 453.426911 54.373744 454.169782 56.576198 454.169782 59.411661 C 454.169782 61.744902 453.4583 63.837495 452.040568 65.689439 C 450.638531 67.536153 448.545939 68.985273 445.778485 70.047264 C 443.011031 71.09356 439.683808 71.62194 435.802049 71.62194 Z M 461.990847 33.824484 L 475.022468 33.824484 L 475.022468 70.999394 L 461.990847 70.999394 Z M 468.509273 29.50328 C 466.495153 29.50328 464.86293 28.87027 463.602143 27.593789 C 462.351819 26.312076 461.724041 24.679853 461.724041 22.707585 C 461.724041 20.740547 462.362282 19.134482 463.633532 17.884158 C 464.920477 16.623371 466.542236 15.990362 468.509273 15.990362 C 470.471079 15.990362 472.09807 16.623371 473.379783 17.884158 C 474.661496 19.134482 475.304968 20.740547 475.304968 22.707585 C 475.304968 24.679853 474.661496 26.312076 473.379783 27.593789 C 472.09807 28.87027 470.471079 29.50328 468.509273 29.50328 Z M 509.869369 33.207169 C 514.478304 33.207169 518.187425 34.577817 521.001962 37.324345 C 523.816499 40.070873 525.223768 44.208975 525.223768 49.73342 L 525.223768 70.999394 L 512.197378 70.999394 L 512.197378 51.857401 C 512.197378 46.793327 510.1571 44.256058 506.081776 44.256058 C 503.847933 44.256058 502.058766 44.988466 500.709044 46.453281 C 499.35409 47.912864 498.679229 50.104855 498.679229 53.034485 L 498.679229 70.999394 L 485.652839 70.999394 L 485.652839 33.824484 L 498.061914 33.824484 L 498.061914 37.878882 C 499.521498 36.356521 501.25835 35.205595 503.267239 34.410409 C 505.291822 33.604761 507.489045 33.207169 509.869369 33.207169 Z M 573.573123 52.479948 C 573.573123 52.568883 573.505114 53.646568 573.374327 55.713004 L 546.34326 55.713004 C 546.892566 57.632957 547.954557 59.103004 549.529233 60.133606 C 551.114372 61.158976 553.091872 61.671661 555.472196 61.671661 C 557.245668 61.671661 558.788956 61.42055 560.091595 60.918328 C 561.399465 60.416106 562.717799 59.589532 564.046595 58.438606 L 570.894605 65.574347 C 567.290114 69.602588 562.006317 71.62194 555.053678 71.62194 C 550.711548 71.62194 546.892566 70.800597 543.601964 69.157912 C 540.30613 67.504764 537.753167 65.218606 535.948306 62.294208 C 534.148676 59.369809 533.248861 56.05305 533.248861 52.343929 C 533.248861 48.681892 534.12775 45.401753 535.880297 42.49828 C 537.643306 39.594808 540.075945 37.324345 543.183445 35.68166 C 546.296177 34.033743 549.796038 33.207169 553.683029 33.207169 C 557.386919 33.207169 560.74553 33.976196 563.758863 35.514252 C 566.787891 37.047076 569.173447 39.259993 570.925994 42.163466 C 572.694234 45.066938 573.573123 48.504022 573.573123 52.479948 Z M 553.745807 42.466892 C 551.736918 42.466892 550.057612 43.042355 548.70789 44.188049 C 547.358168 45.328512 546.500205 46.882262 546.144464 48.844068 L 561.368076 48.844068 C 560.996641 46.882262 560.138678 45.328512 558.788956 44.188049 C 557.449696 43.042355 555.770391 42.466892 553.745807 42.466892 Z M 553.745807 42.466892 " stroke="#000000" stroke-width="5.144445" stroke-opacity="1" stroke-miterlimit="4"/></g><g fill="#ffffff" fill-opacity="1"><g transform="translate(12.18483, 75.059047)"><g><path d="M 21.671875 0.71875 C 17.878906 0.71875 14.472656 -0.0820312 11.453125 -1.6875 C 8.429688 -3.289062 6.054688 -5.507812 4.328125 -8.34375 C 2.597656 -11.175781 1.734375 -14.367188 1.734375 -17.921875 C 1.734375 -21.472656 2.597656 -24.664062 4.328125 -27.5 C 6.054688 -30.332031 8.429688 -32.550781 11.453125 -34.15625 C 14.472656 -35.757812 17.878906 -36.5625 21.671875 -36.5625 C 25.453125 -36.5625 28.851562 -35.757812 31.875 -34.15625 C 34.90625 -32.550781 37.28125 -30.332031 39 -27.5 C 40.726562 -24.664062 41.59375 -21.472656 41.59375 -17.921875 C 41.59375 -14.367188 40.726562 -11.175781 39 -8.34375 C 37.28125 -5.507812 34.90625 -3.289062 31.875 -1.6875 C 28.851562 -0.0820312 25.453125 0.71875 21.671875 0.71875 Z M 21.671875 -7.6875 C 23.472656 -7.6875 25.109375 -8.113281 26.578125 -8.96875 C 28.046875 -9.820312 29.207031 -11.023438 30.0625 -12.578125 C 30.914062 -14.128906 31.34375 -15.910156 31.34375 -17.921875 C 31.34375 -19.941406 30.914062 -21.726562 30.0625 -23.28125 C 29.207031 -24.832031 28.046875 -26.035156 26.578125 -26.890625 C 25.109375 -27.742188 23.472656 -28.171875 21.671875 -28.171875 C 19.859375 -28.171875 18.21875 -27.742188 16.75 -26.890625 C 15.28125 -26.035156 14.117188 -24.832031 13.265625 -23.28125 C 12.410156 -21.726562 11.984375 -19.941406 11.984375 -17.921875 C 11.984375 -15.910156 12.410156 -14.128906 13.265625 -12.578125 C 14.117188 -11.023438 15.28125 -9.820312 16.75 -8.96875 C 18.21875 -8.113281 19.859375 -7.6875 21.671875 -7.6875 Z M 21.671875 -7.6875 "/></g></g></g><g fill="#ffffff" fill-opacity="1"><g transform="translate(57.144126, 75.059047)"><g><path d="M 27.609375 -18.6875 L 36.5625 -18.6875 L 36.5625 -3.84375 C 34.519531 -2.375 32.164062 -1.242188 29.5 -0.453125 C 26.832031 0.328125 24.171875 0.71875 21.515625 0.71875 C 17.753906 0.71875 14.367188 -0.0703125 11.359375 -1.65625 C 8.359375 -3.25 6.003906 -5.460938 4.296875 -8.296875 C 2.585938 -11.128906 1.734375 -14.335938 1.734375 -17.921875 C 1.734375 -21.503906 2.585938 -24.710938 4.296875 -27.546875 C 6.003906 -30.390625 8.378906 -32.601562 11.421875 -34.1875 C 14.460938 -35.769531 17.894531 -36.5625 21.71875 -36.5625 C 25.0625 -36.5625 28.0625 -36 30.71875 -34.875 C 33.382812 -33.75 35.609375 -32.128906 37.390625 -30.015625 L 30.9375 -24.171875 C 28.507812 -26.835938 25.609375 -28.171875 22.234375 -28.171875 C 19.160156 -28.171875 16.679688 -27.238281 14.796875 -25.375 C 12.921875 -23.519531 11.984375 -21.035156 11.984375 -17.921875 C 11.984375 -15.941406 12.410156 -14.175781 13.265625 -12.625 C 14.117188 -11.070312 15.3125 -9.859375 16.84375 -8.984375 C 18.382812 -8.117188 20.144531 -7.6875 22.125 -7.6875 C 24.070312 -7.6875 25.898438 -8.078125 27.609375 -8.859375 Z M 27.609375 -18.6875 "/></g></g></g><g fill="#ffffff" fill-opacity="1"><g transform="translate(98.211761, 75.059047)"><g><path d="M 33.90625 -8.046875 L 33.90625 0 L 1.796875 0 L 1.796875 -6.34375 L 19.875 -27.8125 L 2.25 -27.8125 L 2.25 -35.859375 L 33.140625 -35.859375 L 33.140625 -29.5 L 15.0625 -8.046875 Z M 33.90625 -8.046875 "/></g></g></g><g fill="#ffffff" fill-opacity="1"><g transform="translate(134.619633, 75.059047)"><g/></g></g><g fill="#ffffff" fill-opacity="1"><g transform="translate(151.159543, 75.059047)"><g><path d="M 21.453125 0.71875 C 17.703125 0.71875 14.332031 -0.0703125 11.34375 -1.65625 C 8.351562 -3.25 6.003906 -5.460938 4.296875 -8.296875 C 2.585938 -11.128906 1.734375 -14.335938 1.734375 -17.921875 C 1.734375 -21.503906 2.585938 -24.710938 4.296875 -27.546875 C 6.003906 -30.390625 8.351562 -32.601562 11.34375 -34.1875 C 14.332031 -35.769531 17.703125 -36.5625 21.453125 -36.5625 C 24.734375 -36.5625 27.6875 -35.984375 30.3125 -34.828125 C 32.945312 -33.671875 35.132812 -32 36.875 -29.8125 L 30.421875 -23.96875 C 28.097656 -26.769531 25.28125 -28.171875 21.96875 -28.171875 C 20.019531 -28.171875 18.285156 -27.742188 16.765625 -26.890625 C 15.253906 -26.035156 14.078125 -24.832031 13.234375 -23.28125 C 12.398438 -21.726562 11.984375 -19.941406 11.984375 -17.921875 C 11.984375 -15.910156 12.398438 -14.128906 13.234375 -12.578125 C 14.078125 -11.023438 15.253906 -9.820312 16.765625 -8.96875 C 18.285156 -8.113281 20.019531 -7.6875 21.96875 -7.6875 C 25.28125 -7.6875 28.097656 -9.082031 30.421875 -11.875 L 36.875 -6.046875 C 35.132812 -3.859375 32.945312 -2.179688 30.3125 -1.015625 C 27.6875 0.140625 24.734375 0.71875 21.453125 0.71875 Z M 21.453125 0.71875 "/></g></g></g><g fill="#ffffff" fill-opacity="1"><g transform="translate(190.588583, 75.059047)"><g><path d="M 32.3125 -27.765625 L 32.3125 0 L 23.046875 0 L 23.046875 -2.96875 C 22.023438 -1.84375 20.796875 -0.988281 19.359375 -0.40625 C 17.921875 0.175781 16.398438 0.46875 14.796875 0.46875 C 11.210938 0.46875 8.351562 -0.585938 6.21875 -2.703125 C 4.082031 -4.828125 3.015625 -8.003906 3.015625 -12.234375 L 3.015625 -27.765625 L 12.75 -27.765625 L 12.75 -13.828125 C 12.75 -11.742188 13.140625 -10.222656 13.921875 -9.265625 C 14.710938 -8.316406 15.859375 -7.84375 17.359375 -7.84375 C 18.898438 -7.84375 20.15625 -8.378906 21.125 -9.453125 C 22.101562 -10.523438 22.59375 -12.171875 22.59375 -14.390625 L 22.59375 -27.765625 Z M 32.3125 -27.765625 "/></g></g></g><g fill="#ffffff" fill-opacity="1"><g transform="translate(227.662151, 75.059047)"><g><path d="M 3.125 -27.765625 L 12.859375 -27.765625 L 12.859375 0 L 3.125 0 Z M 8 -30.984375 C 6.488281 -30.984375 5.265625 -31.460938 4.328125 -32.421875 C 3.390625 -33.378906 2.921875 -34.59375 2.921875 -36.0625 C 2.921875 -37.53125 3.398438 -38.734375 4.359375 -39.671875 C 5.316406 -40.609375 6.53125 -41.078125 8 -41.078125 C 9.46875 -41.078125 10.675781 -40.609375 11.625 -39.671875 C 12.582031 -38.734375 13.0625 -37.53125 13.0625 -36.0625 C 13.0625 -34.59375 12.582031 -33.378906 11.625 -32.421875 C 10.675781 -31.460938 9.46875 -30.984375 8 -30.984375 Z M 8 -30.984375 "/></g></g></g><g fill="#ffffff" fill-opacity="1"><g transform="translate(245.328612, 75.059047)"><g><path d="M 13.21875 0.46875 C 10.894531 0.46875 8.601562 0.203125 6.34375 -0.328125 C 4.09375 -0.859375 2.285156 -1.550781 0.921875 -2.40625 L 3.84375 -9.0625 C 5.101562 -8.28125 6.601562 -7.65625 8.34375 -7.1875 C 10.082031 -6.726562 11.804688 -6.5 13.515625 -6.5 C 15.085938 -6.5 16.207031 -6.660156 16.875 -6.984375 C 17.539062 -7.316406 17.875 -7.789062 17.875 -8.40625 C 17.875 -9.019531 17.472656 -9.453125 16.671875 -9.703125 C 15.867188 -9.960938 14.597656 -10.210938 12.859375 -10.453125 C 10.640625 -10.722656 8.75 -11.078125 7.1875 -11.515625 C 5.632812 -11.960938 4.296875 -12.785156 3.171875 -13.984375 C 2.046875 -15.179688 1.484375 -16.851562 1.484375 -19 C 1.484375 -20.78125 2.007812 -22.359375 3.0625 -23.734375 C 4.125 -25.117188 5.671875 -26.210938 7.703125 -27.015625 C 9.734375 -27.816406 12.164062 -28.21875 15 -28.21875 C 17.019531 -28.21875 19.019531 -28.015625 21 -27.609375 C 22.976562 -27.203125 24.632812 -26.617188 25.96875 -25.859375 L 23.046875 -19.265625 C 20.585938 -20.628906 17.925781 -21.3125 15.0625 -21.3125 C 13.519531 -21.3125 12.390625 -21.128906 11.671875 -20.765625 C 10.960938 -20.410156 10.609375 -19.941406 10.609375 -19.359375 C 10.609375 -18.710938 11 -18.257812 11.78125 -18 C 12.5625 -17.75 13.859375 -17.484375 15.671875 -17.203125 C 17.960938 -16.867188 19.859375 -16.476562 21.359375 -16.03125 C 22.859375 -15.582031 24.160156 -14.769531 25.265625 -13.59375 C 26.378906 -12.414062 26.9375 -10.769531 26.9375 -8.65625 C 26.9375 -6.914062 26.40625 -5.351562 25.34375 -3.96875 C 24.289062 -2.582031 22.726562 -1.492188 20.65625 -0.703125 C 18.59375 0.078125 16.113281 0.46875 13.21875 0.46875 Z M 13.21875 0.46875 "/></g></g></g><g fill="#ffffff" fill-opacity="1"><g transform="translate(274.977294, 75.059047)"><g><path d="M 3.125 -27.765625 L 12.859375 -27.765625 L 12.859375 0 L 3.125 0 Z M 8 -30.984375 C 6.488281 -30.984375 5.265625 -31.460938 4.328125 -32.421875 C 3.390625 -33.378906 2.921875 -34.59375 2.921875 -36.0625 C 2.921875 -37.53125 3.398438 -38.734375 4.359375 -39.671875 C 5.316406 -40.609375 6.53125 -41.078125 8 -41.078125 C 9.46875 -41.078125 10.675781 -40.609375 11.625 -39.671875 C 12.582031 -38.734375 13.0625 -37.53125 13.0625 -36.0625 C 13.0625 -34.59375 12.582031 -33.378906 11.625 -32.421875 C 10.675781 -31.460938 9.46875 -30.984375 8 -30.984375 Z M 8 -30.984375 "/></g></g></g><g fill="#ffffff" fill-opacity="1"><g transform="translate(292.643755, 75.059047)"><g><path d="M 21.203125 -28.21875 C 24.648438 -28.21875 27.421875 -27.191406 29.515625 -25.140625 C 31.617188 -23.097656 32.671875 -20.007812 32.671875 -15.875 L 32.671875 0 L 22.953125 0 L 22.953125 -14.296875 C 22.953125 -18.078125 21.429688 -19.96875 18.390625 -19.96875 C 16.710938 -19.96875 15.367188 -19.421875 14.359375 -18.328125 C 13.359375 -17.242188 12.859375 -15.609375 12.859375 -13.421875 L 12.859375 0 L 3.125 0 L 3.125 -27.765625 L 12.390625 -27.765625 L 12.390625 -24.734375 C 13.484375 -25.859375 14.78125 -26.71875 16.28125 -27.3125 C 17.789062 -27.914062 19.429688 -28.21875 21.203125 -28.21875 Z M 21.203125 -28.21875 "/></g></g></g><g fill="#ffffff" fill-opacity="1"><g transform="translate(329.922132, 75.059047)"><g><path d="M 31.5 -13.828125 C 31.5 -13.765625 31.445312 -12.960938 31.34375 -11.421875 L 11.171875 -11.421875 C 11.578125 -9.984375 12.367188 -8.878906 13.546875 -8.109375 C 14.722656 -7.347656 16.203125 -6.96875 17.984375 -6.96875 C 19.304688 -6.96875 20.453125 -7.15625 21.421875 -7.53125 C 22.398438 -7.90625 23.382812 -8.519531 24.375 -9.375 L 29.5 -4.046875 C 26.800781 -1.035156 22.859375 0.46875 17.671875 0.46875 C 14.421875 0.46875 11.566406 -0.144531 9.109375 -1.375 C 6.648438 -2.613281 4.75 -4.320312 3.40625 -6.5 C 2.0625 -8.6875 1.390625 -11.164062 1.390625 -13.9375 C 1.390625 -16.664062 2.046875 -19.113281 3.359375 -21.28125 C 4.671875 -23.445312 6.488281 -25.144531 8.8125 -26.375 C 11.132812 -27.601562 13.742188 -28.21875 16.640625 -28.21875 C 19.410156 -28.21875 21.921875 -27.644531 24.171875 -26.5 C 26.429688 -25.363281 28.21875 -23.707031 29.53125 -21.53125 C 30.84375 -19.363281 31.5 -16.796875 31.5 -13.828125 Z M 16.703125 -21.3125 C 15.191406 -21.3125 13.929688 -20.882812 12.921875 -20.03125 C 11.921875 -19.175781 11.285156 -18.015625 11.015625 -16.546875 L 22.375 -16.546875 C 22.101562 -18.015625 21.460938 -19.175781 20.453125 -20.03125 C 19.453125 -20.882812 18.203125 -21.3125 16.703125 -21.3125 Z M 16.703125 -21.3125 "/></g></g></g><g clip-path="url(#74dc553494)"><path fill="#fffff7" d="M 18.292969 12.183594 C 18.320312 12.058594 18.355469 11.929688 18.390625 11.804688 C 18.546875 11.230469 18.757812 10.6875 19 10.175781 C 20.027344 7.988281 21.714844 6.347656 23.753906 5.226562 C 25.710938 4.152344 28 3.5625 30.34375 3.417969 C 33.804688 3.207031 37.398438 3.972656 40.265625 5.605469 C 42.355469 6.796875 44.0625 8.449219 45.070312 10.511719 C 45.171875 10.726562 45.277344 10.9375 45.386719 11.144531 C 50.113281 9.441406 54.109375 9.878906 57.144531 11.523438 C 61.816406 14.058594 64.230469 19.5 63.550781 24.652344 C 62.816406 30.25 58.457031 35.550781 49.34375 36.335938 L 49.34375 43.574219 C 49.34375 43.753906 49.25 43.917969 49.09375 44.007812 C 48.941406 44.097656 48.75 44.097656 48.59375 44.011719 C 38.65625 38.367188 28.328125 38.339844 17.609375 44.019531 C 17.453125 44.101562 17.265625 44.09375 17.117188 44.003906 C 16.964844 43.914062 16.875 43.75 16.875 43.574219 L 16.875 37.6875 C 7.480469 37.304688 3.136719 30.820312 3.4375 24.503906 C 3.738281 18.125 8.792969 11.855469 18.292969 12.183594 Z M 18.292969 12.183594 " fill-opacity="1" fill-rule="evenodd"/><path fill="#414143" d="M 18.238281 12.117188 C 18.265625 12.007812 18.292969 11.898438 18.324219 11.789062 C 18.484375 11.210938 18.695312 10.664062 18.9375 10.148438 C 19.972656 7.949219 21.667969 6.296875 23.722656 5.171875 C 25.6875 4.089844 27.984375 3.496094 30.34375 3.351562 C 33.8125 3.140625 37.417969 3.910156 40.296875 5.550781 C 42.402344 6.746094 44.117188 8.410156 45.128906 10.484375 C 45.226562 10.679688 45.320312 10.875 45.417969 11.0625 C 50.144531 9.375 54.140625 9.816406 57.175781 11.464844 C 61.871094 14.015625 64.300781 19.480469 63.621094 24.664062 C 62.882812 30.273438 58.523438 35.589844 49.410156 36.398438 L 49.410156 43.574219 C 49.410156 43.777344 49.304688 43.964844 49.128906 44.066406 C 48.953125 44.167969 48.738281 44.171875 48.5625 44.070312 C 38.644531 38.4375 28.339844 38.414062 17.640625 44.078125 C 17.464844 44.171875 17.253906 44.164062 17.082031 44.0625 C 16.910156 43.960938 16.808594 43.773438 16.808594 43.574219 L 16.808594 37.753906 C 7.410156 37.339844 3.070312 30.835938 3.371094 24.503906 C 3.671875 18.105469 8.730469 11.8125 18.238281 12.117188 Z M 28.355469 28.964844 C 24.898438 29.546875 21.425781 30.742188 17.945312 32.546875 L 17.945312 42.640625 C 28.417969 37.363281 38.523438 37.386719 48.273438 42.609375 L 48.273438 33.292969 C 40.382812 37.230469 32.863281 34.621094 28.441406 29.050781 C 28.410156 29.023438 28.382812 28.996094 28.355469 28.964844 Z M 53.039062 16.53125 C 51.328125 16.976562 49.84375 16.804688 48.53125 16.136719 C 47.925781 15.828125 47.359375 15.414062 46.832031 14.898438 C 45.816406 13.914062 44.949219 12.566406 44.152344 10.96875 C 43.222656 9.097656 41.652344 7.609375 39.742188 6.53125 C 37.042969 5.003906 33.664062 4.296875 30.410156 4.492188 C 28.222656 4.625 26.089844 5.175781 24.257812 6.160156 C 22.398438 7.167969 20.847656 8.632812 19.878906 10.601562 C 19.648438 11.066406 19.453125 11.558594 19.289062 12.078125 C 19.128906 12.574219 18.992188 13.089844 18.894531 13.632812 C 18.738281 14.46875 18.726562 15.695312 18.816406 16.894531 C 18.914062 18.167969 19.125 19.410156 19.429688 20.117188 C 19.472656 20.214844 19.433594 20.328125 19.335938 20.375 C 19.238281 20.421875 19.125 20.382812 19.074219 20.285156 C 18.699219 19.574219 18.367188 18.296875 18.160156 16.96875 C 17.96875 15.703125 17.898438 14.402344 17.996094 13.5 C 18.007812 13.417969 18.015625 13.332031 18.027344 13.25 C 9.414062 13.054688 4.78125 18.726562 4.503906 24.558594 C 4.230469 30.335938 8.25 36.207031 16.808594 36.613281 L 16.808594 35.265625 C 16.152344 35.40625 15.539062 35.460938 14.972656 35.40625 C 14.5 35.355469 14.054688 35.242188 13.644531 35.058594 C 13.132812 34.824219 12.675781 34.496094 12.277344 34.070312 C 11.925781 33.699219 11.621094 33.261719 11.355469 32.75 C 11.289062 32.644531 11.316406 32.503906 11.421875 32.433594 C 11.523438 32.363281 11.664062 32.390625 11.738281 32.492188 C 12.003906 32.804688 12.28125 33.066406 12.570312 33.300781 C 13.019531 33.664062 13.5 33.90625 14.019531 34.066406 C 14.351562 34.167969 14.699219 34.222656 15.066406 34.246094 C 15.570312 34.277344 16.117188 34.242188 16.703125 34.109375 L 16.808594 34.082031 L 16.808594 32.796875 L 16.472656 32.722656 L 16.46875 32.722656 C 15.308594 32.417969 14.304688 31.949219 13.46875 31.308594 C 12.875 30.847656 12.363281 30.304688 11.945312 29.675781 C 11.457031 28.945312 11.089844 28.113281 10.832031 27.175781 C 10.613281 26.371094 10.480469 25.496094 10.425781 24.542969 C 10.410156 24.417969 10.5 24.304688 10.625 24.289062 C 10.75 24.273438 10.863281 24.359375 10.878906 24.484375 C 11.015625 25.191406 11.195312 25.839844 11.410156 26.449219 C 11.761719 27.453125 12.226562 28.3125 12.800781 29.046875 C 13.199219 29.554688 13.652344 29.996094 14.167969 30.378906 C 14.902344 30.921875 15.757812 31.339844 16.761719 31.609375 L 17.117188 31.695312 C 20.640625 29.832031 24.148438 28.582031 27.644531 27.933594 C 27.515625 27.722656 27.382812 27.496094 27.257812 27.25 C 26.976562 26.710938 26.707031 26.082031 26.492188 25.378906 C 26.359375 24.933594 26.238281 24.460938 26.167969 23.957031 C 26.121094 23.644531 26.082031 23.324219 26.082031 22.988281 C 26.082031 22.472656 26.15625 21.953125 26.257812 21.394531 C 26.261719 21.285156 26.351562 21.203125 26.460938 21.207031 C 26.566406 21.207031 26.652344 21.296875 26.652344 21.40625 C 26.722656 21.9375 26.847656 22.414062 26.953125 22.894531 C 27.019531 23.191406 27.078125 23.484375 27.148438 23.765625 C 27.257812 24.214844 27.378906 24.640625 27.519531 25.039062 C 27.746094 25.667969 28.007812 26.226562 28.269531 26.710938 C 28.585938 27.296875 28.898438 27.78125 29.164062 28.148438 C 29.191406 28.167969 29.214844 28.195312 29.234375 28.222656 C 33.378906 33.535156 40.523438 36.003906 48 32.152344 C 48.011719 32.144531 48.027344 32.136719 48.042969 32.128906 C 48.050781 32.125 48.0625 32.121094 48.070312 32.117188 C 48.207031 32.042969 48.351562 31.96875 48.488281 31.890625 C 48.992188 31.597656 49.6875 31.117188 50.40625 30.363281 C 50.820312 29.933594 51.246094 29.417969 51.652344 28.796875 C 52.074219 28.160156 52.472656 27.414062 52.835938 26.542969 C 53.140625 25.808594 53.4375 25.003906 53.664062 24.078125 C 53.6875 23.960938 53.796875 23.882812 53.910156 23.902344 C 54.027344 23.921875 54.105469 24.03125 54.085938 24.148438 C 53.996094 25.136719 53.847656 26.023438 53.625 26.816406 C 53.347656 27.800781 52.972656 28.640625 52.5625 29.359375 C 52.152344 30.078125 51.695312 30.671875 51.242188 31.160156 C 50.59375 31.863281 49.945312 32.347656 49.410156 32.679688 L 49.410156 33.613281 C 50.050781 33.476562 50.597656 33.273438 51.085938 33.042969 C 51.460938 32.863281 51.800781 32.675781 52.097656 32.441406 C 52.636719 32.019531 53.054688 31.511719 53.339844 30.863281 C 53.378906 30.746094 53.507812 30.679688 53.625 30.714844 C 53.746094 30.753906 53.8125 30.878906 53.777344 31 C 53.6875 31.507812 53.523438 31.964844 53.289062 32.394531 C 53.046875 32.835938 52.722656 33.230469 52.316406 33.574219 C 52.019531 33.824219 51.671875 34.042969 51.285156 34.226562 C 50.792969 34.460938 50.222656 34.625 49.589844 34.753906 L 49.410156 34.78125 L 49.410156 35.253906 C 57.75 34.476562 61.8125 29.675781 62.492188 24.511719 C 63.113281 19.789062 60.917969 14.792969 56.636719 12.46875 C 53.875 10.96875 50.257812 10.59375 45.984375 12.070312 C 46.476562 12.875 47 13.582031 47.5625 14.167969 C 48.003906 14.632812 48.46875 15.027344 48.972656 15.339844 C 50.09375 16.027344 51.386719 16.3125 52.945312 16.070312 C 53.070312 16.046875 53.195312 16.128906 53.21875 16.253906 C 53.246094 16.382812 53.164062 16.503906 53.039062 16.53125 Z M 53.039062 16.53125 " fill-opacity="1" fill-rule="evenodd"/></g></svg>